<svg width="105" height="124" viewBox="0 0 105 124" fill="none" xmlns="http://www.w3.org/2000/svg">
<g filter="url(#filter0_d_117_4)">
<rect x="5" y="15.1316" width="95" height="99.8684" fill="black"/>
<rect x="5" y="15.1316" width="95" height="99.8684" stroke="black"/>
</g>
<g filter="url(#filter1_d_117_4)">
<path d="M85.0312 92H37.0312C34.6875 92 32.5 91.5625 30.4688 90.6875C28.4375 89.8125 26.6562 88.625 25.125 87.125C23.5938 85.5938 22.3906 83.8125 21.5156 81.7812C20.6406 79.7188 20.2031 77.5312 20.2031 75.2188C20.2031 72.875 20.6406 70.6875 21.5156 68.6562C22.3906 66.625 23.5938 64.8438 25.125 63.3125C26.6562 61.7812 28.4375 60.5781 30.4688 59.7031C32.5 58.8281 34.6875 58.3906 37.0312 58.3906H70.5938V68H37.0312C36.0312 68 35.0938 68.2031 34.2188 68.6094C33.3438 68.9844 32.5781 69.5 31.9219 70.1562C31.2656 70.8125 30.75 71.5781 30.375 72.4531C30 73.3281 29.8125 74.25 29.8125 75.2188C29.8125 76.2188 30 77.1562 30.375 78.0312C30.75 78.875 31.2656 79.625 31.9219 80.2812C32.5781 80.9375 33.3438 81.4531 34.2188 81.8281C35.0938 82.2031 36.0312 82.3906 37.0312 82.3906H75.4219V56C75.4219 55.0312 75.2188 54.1094 74.8125 53.2344C74.4375 52.3594 73.9219 51.5938 73.2656 50.9375C72.6094 50.2812 71.8438 49.7656 70.9688 49.3906C70.0938 48.9844 69.1719 48.7812 68.2031 48.7812H29.8125V39.2188H68.2031C70.5469 39.2188 72.7344 39.6562 74.7656 40.5312C76.7969 41.4062 78.5781 42.6094 80.1094 44.1406C81.6406 45.6406 82.8438 47.4062 83.7188 49.4375C84.5938 51.4688 85.0312 53.6562 85.0312 56V92Z" fill="white"/>
<path d="M85.0312 92V92.5H85.5312V92H85.0312ZM30.4688 90.6875L30.6666 90.2283L30.4688 90.6875ZM25.125 87.125L24.7714 87.4786L24.7751 87.4822L25.125 87.125ZM21.5156 81.7812L21.0553 81.9765L21.0564 81.9791L21.5156 81.7812ZM70.5938 58.3906H71.0938V57.8906H70.5938V58.3906ZM70.5938 68V68.5H71.0938V68H70.5938ZM34.2188 68.6094L34.4157 69.0689L34.4226 69.066L34.4293 69.0629L34.2188 68.6094ZM30.375 78.0312L29.9154 78.2282L29.9181 78.2343L30.375 78.0312ZM75.4219 82.3906V82.8906H75.9219V82.3906H75.4219ZM74.8125 53.2344L74.3529 53.4313L74.3559 53.4382L74.359 53.4449L74.8125 53.2344ZM70.9688 49.3906L70.7582 49.8441L70.7649 49.8473L70.7718 49.8502L70.9688 49.3906ZM29.8125 48.7812H29.3125V49.2812H29.8125V48.7812ZM29.8125 39.2188V38.7188H29.3125V39.2188H29.8125ZM80.1094 44.1406L79.7558 44.4942L79.7595 44.4978L80.1094 44.1406ZM85.0312 91.5H37.0312V92.5H85.0312V91.5ZM37.0312 91.5C34.7514 91.5 32.6317 91.0748 30.6666 90.2283L30.2709 91.1467C32.3683 92.0502 34.6236 92.5 37.0312 92.5V91.5ZM30.6666 90.2283C28.69 89.3769 26.9608 88.2234 25.4749 86.7678L24.7751 87.4822C26.3517 89.0266 28.185 90.2481 30.2709 91.1467L30.6666 90.2283ZM25.4786 86.7714C23.993 85.2859 22.8253 83.5578 21.9748 81.5834L21.0564 81.9791C21.9559 84.0672 23.1945 85.9016 24.7714 87.4786L25.4786 86.7714ZM21.9759 81.586C21.128 79.5872 20.7031 77.4664 20.7031 75.2188H19.7031C19.7031 77.5961 20.1533 79.8503 21.0553 81.9765L21.9759 81.586ZM20.7031 75.2188C20.7031 72.9389 21.1283 70.8192 21.9748 68.8541L21.0564 68.4584C20.1529 70.5558 19.7031 72.8111 19.7031 75.2188H20.7031ZM21.9748 68.8541C22.8253 66.8797 23.993 65.1516 25.4786 63.6661L24.7714 62.9589C23.1945 64.5359 21.9559 66.3703 21.0564 68.4584L21.9748 68.8541ZM25.4786 63.6661C26.9641 62.1805 28.6922 61.0128 30.6666 60.1623L30.2709 59.2439C28.1828 60.1434 26.3484 61.382 24.7714 62.9589L25.4786 63.6661ZM30.6666 60.1623C32.6317 59.3158 34.7514 58.8906 37.0312 58.8906V57.8906C34.6236 57.8906 32.3683 58.3404 30.2709 59.2439L30.6666 60.1623ZM37.0312 58.8906H70.5938V57.8906H37.0312V58.8906ZM70.0938 58.3906V68H71.0938V58.3906H70.0938ZM70.5938 67.5H37.0312V68.5H70.5938V67.5ZM37.0312 67.5C35.9613 67.5 34.9516 67.7179 34.0082 68.1559L34.4293 69.0629C35.2359 68.6884 36.1012 68.5 37.0312 68.5V67.5ZM34.0218 68.1498C33.0899 68.5492 32.2707 69.1003 31.5683 69.8027L32.2754 70.5098C32.8855 69.8997 33.5976 69.4195 34.4157 69.0689L34.0218 68.1498ZM31.5683 69.8027C30.8659 70.5051 30.3148 71.3242 29.9154 72.2562L30.8346 72.6501C31.1852 71.832 31.6653 71.1199 32.2754 70.5098L31.5683 69.8027ZM29.9154 72.2562C29.5133 73.1945 29.3125 74.1835 29.3125 75.2188H30.3125C30.3125 74.3165 30.4867 73.4617 30.8346 72.6501L29.9154 72.2562ZM29.3125 75.2188C29.3125 76.283 29.5124 77.2879 29.9154 78.2282L30.8346 77.8343C30.4876 77.0246 30.3125 76.1545 30.3125 75.2188H29.3125ZM29.9181 78.2343C30.3181 79.1344 30.8689 79.9354 31.5683 80.6348L32.2754 79.9277C31.6623 79.3146 31.1819 78.6156 30.8319 77.8282L29.9181 78.2343ZM31.5683 80.6348C32.2707 81.3372 33.0899 81.8883 34.0218 82.2877L34.4157 81.3686C33.5976 81.018 32.8855 80.5378 32.2754 79.9277L31.5683 80.6348ZM34.0218 82.2877C34.9621 82.6907 35.967 82.8906 37.0312 82.8906V81.8906C36.0955 81.8906 35.2254 81.7155 34.4157 81.3686L34.0218 82.2877ZM37.0312 82.8906H75.4219V81.8906H37.0312V82.8906ZM75.9219 82.3906V56H74.9219V82.3906H75.9219ZM75.9219 56C75.9219 54.9588 75.703 53.9651 75.266 53.0238L74.359 53.4449C74.7345 54.2537 74.9219 55.1037 74.9219 56H75.9219ZM75.2721 53.0374C74.8727 52.1055 74.3216 51.2863 73.6192 50.5839L72.9121 51.2911C73.5222 51.9012 74.0023 52.6133 74.3529 53.4313L75.2721 53.0374ZM73.6192 50.5839C72.9168 49.8816 72.0976 49.3305 71.1657 48.9311L70.7718 49.8502C71.5899 50.2008 72.302 50.6809 72.9121 51.2911L73.6192 50.5839ZM71.1793 48.9371C70.2381 48.5001 69.2443 48.2812 68.2031 48.2812V49.2812C69.0995 49.2812 69.9494 49.4686 70.7582 49.8441L71.1793 48.9371ZM68.2031 48.2812H29.8125V49.2812H68.2031V48.2812ZM30.3125 48.7812V39.2188H29.3125V48.7812H30.3125ZM29.8125 39.7188H68.2031V38.7188H29.8125V39.7188ZM68.2031 39.7188C70.483 39.7188 72.6027 40.144 74.5678 40.9905L74.9634 40.072C72.866 39.1685 70.6108 38.7188 68.2031 38.7188V39.7188ZM74.5678 40.9905C76.5422 41.841 78.2703 43.0087 79.7558 44.4942L80.4629 43.7871C78.886 42.2101 77.0516 40.9715 74.9634 40.072L74.5678 40.9905ZM79.7595 44.4978C81.2428 45.9508 82.4094 47.6618 83.2595 49.6353L84.178 49.2397C83.2781 47.1507 82.0385 45.3304 80.4593 43.7834L79.7595 44.4978ZM83.2595 49.6353C84.106 51.6004 84.5312 53.7201 84.5312 56H85.5312C85.5312 53.5924 85.0815 51.3371 84.178 49.2397L83.2595 49.6353ZM84.5312 56V92H85.5312V56H84.5312Z" fill="black"/>
</g>
<defs>
<filter id="filter0_d_117_4" x="0.5" y="14.6316" width="104" height="108.868" filterUnits="userSpaceOnUse" color-interpolation-filters="sRGB">
<feFlood flood-opacity="0" result="BackgroundImageFix"/>
<feColorMatrix in="SourceAlpha" type="matrix" values="0 0 0 0 0 0 0 0 0 0 0 0 0 0 0 0 0 0 127 0" result="hardAlpha"/>
<feOffset dy="4"/>
<feGaussianBlur stdDeviation="2"/>
<feComposite in2="hardAlpha" operator="out"/>
<feColorMatrix type="matrix" values="0 0 0 0 0 0 0 0 0 0 0 0 0 0 0 0 0 0 0.25 0"/>
<feBlend mode="normal" in2="BackgroundImageFix" result="effect1_dropShadow_117_4"/>
<feBlend mode="normal" in="SourceGraphic" in2="effect1_dropShadow_117_4" result="shape"/>
</filter>
<filter id="filter1_d_117_4" x="16.2031" y="39.2188" width="72.8281" height="60.7812" filterUnits="userSpaceOnUse" color-interpolation-filters="sRGB">
<feFlood flood-opacity="0" result="BackgroundImageFix"/>
<feColorMatrix in="SourceAlpha" type="matrix" values="0 0 0 0 0 0 0 0 0 0 0 0 0 0 0 0 0 0 127 0" result="hardAlpha"/>
<feOffset dy="4"/>
<feGaussianBlur stdDeviation="2"/>
<feComposite in2="hardAlpha" operator="out"/>
<feColorMatrix type="matrix" values="0 0 0 0 0 0 0 0 0 0 0 0 0 0 0 0 0 0 0.25 0"/>
<feBlend mode="normal" in2="BackgroundImageFix" result="effect1_dropShadow_117_4"/>
<feBlend mode="normal" in="SourceGraphic" in2="effect1_dropShadow_117_4" result="shape"/>
</filter>
</defs>
</svg>