<svg width="304" height="49" viewBox="0 0 304 49" fill="none" xmlns="http://www.w3.org/2000/svg">
<path d="M43.6875 36H11.6875C10.125 36 8.66667 35.7083 7.3125 35.125C5.95833 34.5417 4.77083 33.75 3.75 32.75C2.72917 31.7292 1.92708 30.5417 1.34375 29.1875C0.760417 27.8125 0.46875 26.3542 0.46875 24.8125C0.46875 23.25 0.760417 21.7917 1.34375 20.4375C1.92708 19.0833 2.72917 17.8958 3.75 16.875C4.77083 15.8542 5.95833 15.0521 7.3125 14.4688C8.66667 13.8854 10.125 13.5938 11.6875 13.5938H34.0625V20H11.6875C11.0208 20 10.3958 20.1354 9.8125 20.4062C9.22917 20.6562 8.71875 21 8.28125 21.4375C7.84375 21.875 7.5 22.3854 7.25 22.9688C7 23.5521 6.875 24.1667 6.875 24.8125C6.875 25.4792 7 26.1042 7.25 26.6875C7.5 27.25 7.84375 27.75 8.28125 28.1875C8.71875 28.625 9.22917 28.9688 9.8125 29.2188C10.3958 29.4688 11.0208 29.5938 11.6875 29.5938H37.2812V12C37.2812 11.3542 37.1458 10.7396 36.875 10.1562C36.625 9.57292 36.2812 9.0625 35.8438 8.625C35.4062 8.1875 34.8958 7.84375 34.3125 7.59375C33.7292 7.32292 33.1146 7.1875 32.4688 7.1875H6.875V0.8125H32.4688C34.0312 0.8125 35.4896 1.10417 36.8438 1.6875C38.1979 2.27083 39.3854 3.07292 40.4062 4.09375C41.4271 5.09375 42.2292 6.27083 42.8125 7.625C43.3958 8.97917 43.6875 10.4375 43.6875 12V36ZM59.0625 36H52.6562V0.8125H76.6562C79.0729 0.8125 81.3438 1.28125 83.4688 2.21875C85.5938 3.13542 87.4479 4.39583 89.0312 6C90.6146 7.58333 91.8646 9.44792 92.7812 11.5938C93.6979 13.7188 94.1562 15.9896 94.1562 18.4062V36H87.75V18.4062C87.75 16.8646 87.4583 15.4167 86.875 14.0625C86.2917 12.7083 85.5 11.5312 84.5 10.5312C83.5 9.51042 82.3229 8.70833 80.9688 8.125C79.6354 7.52083 78.1979 7.20833 76.6562 7.1875H59.0625V36ZM145.344 18.4062C145.344 20.8229 144.885 23.0938 143.969 25.2188C143.052 27.3438 141.802 29.2083 140.219 30.8125C138.656 32.3958 136.812 33.6562 134.688 34.5938C132.562 35.5104 130.292 35.9792 127.875 36H118.031C115.615 35.9792 113.344 35.5104 111.219 34.5938C109.094 33.6562 107.24 32.3958 105.656 30.8125C104.094 29.2083 102.854 27.3438 101.938 25.2188C101.021 23.0938 100.562 20.8229 100.562 18.4062C100.562 15.9896 101.021 13.7188 101.938 11.5938C102.854 9.44792 104.094 7.58333 105.656 6C107.24 4.39583 109.094 3.13542 111.219 2.21875C113.344 1.28125 115.615 0.8125 118.031 0.8125H127.875C129.479 0.8125 131.031 1.02083 132.531 1.4375C134.031 1.85417 135.427 2.44792 136.719 3.21875C138.01 3.98958 139.188 4.91667 140.25 6C141.312 7.0625 142.219 8.25 142.969 9.5625C143.719 10.8542 144.302 12.25 144.719 13.75C145.135 15.25 145.344 16.8021 145.344 18.4062ZM138.969 18.4062C138.969 16.8646 138.677 15.4167 138.094 14.0625C137.51 12.7083 136.719 11.5312 135.719 10.5312C134.719 9.51042 133.542 8.70833 132.188 8.125C130.854 7.52083 129.417 7.20833 127.875 7.1875H118.031C116.49 7.20833 115.042 7.52083 113.688 8.125C112.354 8.70833 111.188 9.51042 110.188 10.5312C109.188 11.5312 108.396 12.7083 107.812 14.0625C107.25 15.4167 106.969 16.8646 106.969 18.4062C106.969 19.9479 107.25 21.3958 107.812 22.75C108.396 24.1042 109.188 25.2917 110.188 26.3125C111.188 27.3125 112.354 28.1146 113.688 28.7188C115.042 29.3021 116.49 29.5938 118.031 29.5938H127.875C129.417 29.5938 130.854 29.3021 132.188 28.7188C133.542 28.1146 134.719 27.3125 135.719 26.3125C136.719 25.2917 137.51 24.1042 138.094 22.75C138.677 21.3958 138.969 19.9479 138.969 18.4062ZM158.75 36H152.344V0.8125H176.344C178.76 0.8125 181.031 1.28125 183.156 2.21875C185.281 3.13542 187.135 4.39583 188.719 6C190.302 7.58333 191.552 9.44792 192.469 11.5938C193.385 13.7188 193.844 15.9896 193.844 18.4062V36H187.438V18.4062C187.438 16.8646 187.146 15.4167 186.562 14.0625C185.979 12.7083 185.188 11.5312 184.188 10.5312C183.188 9.51042 182.01 8.70833 180.656 8.125C179.323 7.52083 177.885 7.20833 176.344 7.1875H158.75V36ZM243.375 37.5938C243.375 39.1562 243.083 40.6146 242.5 41.9688C241.917 43.3229 241.115 44.5104 240.094 45.5312C239.094 46.5521 237.906 47.3542 236.531 47.9375C235.177 48.5208 233.729 48.8125 232.188 48.8125H206.594V42.4062H232.188C232.833 42.4062 233.448 42.2812 234.031 42.0312C234.615 41.7812 235.125 41.4375 235.562 41C236 40.5625 236.344 40.0521 236.594 39.4688C236.844 38.8854 236.969 38.2604 236.969 37.5938V36H219.375C216.958 36 214.688 35.5417 212.562 34.625C210.438 33.6875 208.583 32.4271 207 30.8438C205.438 29.2396 204.198 27.375 203.281 25.25C202.365 23.1042 201.906 20.8229 201.906 18.4062V0.8125H208.312V18.4062C208.312 19.9479 208.594 21.3958 209.156 22.75C209.74 24.0833 210.531 25.2604 211.531 26.2812C212.531 27.2812 213.698 28.0833 215.031 28.6875C216.385 29.2708 217.833 29.5729 219.375 29.5938H236.969V0.8125H243.375V37.5938ZM259 36H252.594V0.8125H286.344C288.76 0.8125 291.031 1.28125 293.156 2.21875C295.281 3.13542 297.125 4.39583 298.688 6C300.271 7.58333 301.521 9.44792 302.438 11.5938C303.354 13.7188 303.812 15.9896 303.812 18.4062V36H297.406V18.4062C297.406 16.8646 297.115 15.4167 296.531 14.0625C295.948 12.7083 295.156 11.5312 294.156 10.5312C293.156 9.51042 291.979 8.70833 290.625 8.125C289.292 7.52083 287.865 7.20833 286.344 7.1875H281.406V36H275V7.1875H259V36Z" fill="white"/>
</svg>